<svg height="512pt" viewBox="0 0 512 512" width="512pt" xmlns="http://www.w3.org/2000/svg"><path d="m291.601562 300.609375c-7.902343-3.230469-15.371093-6.289063-21.171874-10.628906-4.257813-3.210938-7.210938-7.808594-8.320313-12.96875l-.167969-.75c-1.972656-9.171875 2.257813-18.589844 10.519532-23.441407 11.820312-6.949218 19.167968-20.53125 19.167968-35.460937 0-22.050781-15.980468-39.988281-35.617187-39.988281-19.652344 0-35.632813 17.9375-35.632813 39.988281 0 15.0625 7.460938 28.699219 19.449219 35.601563 8.390625 4.820312 12.703125 14.277343 10.710937 23.527343-1.007812 4.730469-3.617187 9.0625-7.347656 12.191407-6.019531 5.070312-14.160156 8.398437-22.792968 11.921874-20.136719 8.238282-35.417969 15.917969-40.589844 34.019532h152.390625c-5.179688-18.101563-20.449219-25.78125-40.597657-34.011719zm0 0"/><path d="m256 94.941406c-88.800781 0-161.050781 72.25-161.050781 161.058594 0 88.800781 72.25 161.050781 161.050781 161.050781 88.808594 0 161.058594-72.25 161.058594-161.050781 0-88.808594-72.25-161.058594-161.058594-161.058594zm102.828125 263.597656c-3.679687 3.871094-8.898437 6.082032-14.328125 6.082032h-176.988281c-5.433594 0-10.660157-2.222656-14.332031-6.082032-3.53125-3.710937-5.410157-8.730468-5.160157-13.777343 2.371094-47.941407 39.089844-62.953125 61.03125-71.921875 1.570313-.648438 3.160157-1.300782 4.6875-1.941406-14.648437-13.136719-23.359375-32.628907-23.359375-53.539063 0-38.589844 29.441406-69.988281 65.632813-69.988281 36.179687 0 65.617187 31.398437 65.617187 69.988281 0 20.871094-8.707031 40.390625-23.347656 53.550781 1.527344.640625 3.109375 1.289063 4.667969 1.929688 21.941406 8.96875 58.671875 23.980468 61.03125 71.929687.257812 5.039063-1.621094 10.070313-5.152344 13.769531zm0 0"/><path d="m437.019531 74.980469c-48.347656-48.351563-112.640625-74.980469-181.019531-74.980469s-132.660156 26.628906-181.019531 74.980469c-48.351563 48.347656-74.980469 112.640625-74.980469 181.019531s26.628906 132.660156 74.980469 181.019531c48.359375 48.351563 112.640625 74.980469 181.019531 74.980469s132.671875-26.628906 181.019531-74.980469c48.359375-48.359375 74.980469-112.640625 74.980469-181.019531s-26.621094-132.671875-74.980469-181.019531zm-181.019531 372.070312c-105.339844 0-191.050781-85.699219-191.050781-191.050781s85.710937-191.058594 191.050781-191.058594c105.351562 0 191.058594 85.707032 191.058594 191.058594s-85.707032 191.050781-191.058594 191.050781zm0 0"/></svg>