<?xml version="1.0" encoding="iso-8859-1"?>
<!-- Generator: Adobe Illustrator 16.0.0, SVG Export Plug-In . SVG Version: 6.00 Build 0)  -->
<!DOCTYPE svg PUBLIC "-//W3C//DTD SVG 1.1//EN" "http://www.w3.org/Graphics/SVG/1.1/DTD/svg11.dtd">
<svg version="1.1" id="Capa_1" xmlns="http://www.w3.org/2000/svg" xmlns:xlink="http://www.w3.org/1999/xlink" x="0px" y="0px"
	 width="569.16px" height="569.161px" viewBox="0 0 569.16 569.161" style="enable-background:new 0 0 569.16 569.161;"
	 xml:space="preserve">
<g>
	<g>
		<path d="M36.27,472.771h6.013L364.4,96.391H36.27c-20,0-36.27,16.227-36.27,36.172v304.032C0,456.541,16.27,472.771,36.27,472.771
			z"/>
		<path d="M471.108,96.391h-6.013l-322.117,376.38h328.13c20,0,36.273-16.228,36.273-36.173V132.563
			C507.382,112.618,491.108,96.391,471.108,96.391z"/>
		<path d="M532.89,174.892c0,0-1.609,0-3.592,0c-1.983,0-3.593,2.727-3.593,6.086v207.199c0,3.362,1.606,6.086,3.593,6.086h3.592
			c20,0,36.271-16.227,36.271-36.172V211.064C569.16,191.119,552.89,174.892,532.89,174.892z"/>
		<path d="M27.359,513.741L27.359,513.741c-8.24,9.63-7.114,24.119,2.516,32.359c4.327,3.703,9.63,5.515,14.911,5.515
			c6.475,0,12.907-2.724,17.445-8.026l0,0l60.606-70.817l322.117-376.38l35.064-40.97l0,0c8.24-9.63,7.114-24.116-2.516-32.359
			s-24.116-7.118-32.356,2.515l0,0l-60.606,70.817L62.424,472.774L27.359,513.741z"/>
	</g>
</g>
<g>
</g>
<g>
</g>
<g>
</g>
<g>
</g>
<g>
</g>
<g>
</g>
<g>
</g>
<g>
</g>
<g>
</g>
<g>
</g>
<g>
</g>
<g>
</g>
<g>
</g>
<g>
</g>
<g>
</g>
</svg>
